<?xml version="1.0" encoding="UTF-8" standalone="no"?><!DOCTYPE svg PUBLIC "-//W3C//DTD SVG 1.1//EN" "http://www.w3.org/Graphics/SVG/1.1/DTD/svg11.dtd"><svg width="100%" height="100%" viewBox="0 0 200 200" version="1.1" xmlns="http://www.w3.org/2000/svg" xmlns:xlink="http://www.w3.org/1999/xlink" xml:space="preserve" xmlns:serif="http://www.serif.com/" style="fill-rule:evenodd;clip-rule:evenodd;stroke-linejoin:round;stroke-miterlimit:2;"><path d="M179.167,145.833l-57.521,0c2.479,13.755 10.721,23.217 18.337,29.167l10.017,0c2.304,0 4.167,1.863 4.167,4.167c-0,2.304 -1.863,4.166 -4.167,4.166l-100,0c-2.304,0 -4.167,-1.862 -4.167,-4.166c0,-2.304 1.863,-4.167 4.167,-4.167l10.013,0c7.612,-5.95 15.862,-15.412 18.337,-29.167l-57.517,0c-9.204,0 -16.666,-7.462 -16.666,-16.666l-0,-95.834c-0,-9.204 7.462,-16.666 16.666,-16.666l158.334,-0c9.204,-0 16.666,7.462 16.666,16.666l0,95.834c0,9.204 -7.462,16.666 -16.666,16.666Zm-106.68,29.167l55.021,0c-6.645,-7.008 -12.562,-16.567 -14.412,-29.167l-26.196,0c-1.85,12.6 -7.767,22.159 -14.412,29.167Zm115.012,-141.667c0,-4.6 -3.733,-8.333 -8.333,-8.333l-158.334,0c-4.6,0 -8.333,3.733 -8.333,8.333l0,79.167l175,0l0,-79.167Zm0,87.5l-175,0l0,8.334c0,4.6 3.733,8.333 8.333,8.333l158.334,0c4.6,0 8.333,-3.733 8.333,-8.333l0,-8.334Zm-87.5,12.5c-2.304,0 -4.167,-1.862 -4.167,-4.166c0,-2.304 1.863,-4.167 4.167,-4.167c2.304,0 4.167,1.863 4.167,4.167c-0,2.304 -1.863,4.166 -4.167,4.166Z" style="fill:#fff;"/></svg>