<?xml version="1.0" encoding="UTF-8" standalone="no"?><!DOCTYPE svg PUBLIC "-//W3C//DTD SVG 1.1//EN" "http://www.w3.org/Graphics/SVG/1.1/DTD/svg11.dtd"><svg width="100%" height="100%" viewBox="0 0 8684 8684" version="1.1" xmlns="http://www.w3.org/2000/svg" xmlns:xlink="http://www.w3.org/1999/xlink" xml:space="preserve" xmlns:serif="http://www.serif.com/" style="fill-rule:evenodd;clip-rule:evenodd;stroke-miterlimit:10;"><path d="M869.792,5508.67l-0,-3598.96c-0,-144.096 118.054,-260.416 260.416,-260.416l6453.12,-0c144.096,-0 260.417,118.058 260.417,260.416l0,3598.96" style="fill-opacity:0;fill-rule:nonzero;stroke:#fff;stroke-width:381.96px;"/><path d="M8083.33,6720.5l-7482.62,0c-142.362,0 -260.416,-118.058 -260.416,-260.417l-0,-111.112c-0,-144.096 118.054,-260.417 260.416,-260.417l7482.62,0c144.096,0 260.417,118.054 260.417,260.417l0,111.112c0,142.359 -116.321,260.417 -260.417,260.417Z" style="fill:#fff;fill-rule:nonzero;"/><path d="M4317.71,1765.62c-45.137,0 -81.596,-36.458 -81.596,-81.596c0,-45.141 36.459,-81.6 81.596,-81.6c45.138,0 81.596,36.459 81.596,81.6c-1.733,45.138 -38.191,81.596 -81.596,81.596Z" style="fill:#fff;fill-rule:nonzero;"/><path d="M8317.71,6237.83l-7958.33,13.892l321.179,-755.208l7354.17,-0l282.987,741.316Z" style="fill:#fff;fill-rule:nonzero;"/><path d="M4892.38,6531.25l-1069.45,0c-98.958,0 -178.821,-79.862 -178.821,-178.821l0,-71.179c0,-98.958 79.863,-178.821 178.821,-178.821l1069.45,0c98.958,0 178.817,79.863 178.817,178.821l-0,71.179c-0,98.959 -79.859,178.821 -178.817,178.821Z" style="fill:#fff;fill-rule:nonzero;"/></svg>