<?xml version="1.0" ?><!DOCTYPE svg  PUBLIC '-//W3C//DTD SVG 1.1//EN'  'http://www.w3.org/Graphics/SVG/1.1/DTD/svg11.dtd'><svg fill="#fff" height="512px" style="enable-background:new 0 0 512 512;" version="1.1" viewBox="0 0 512 512" width="512px" xml:space="preserve" xmlns="http://www.w3.org/2000/svg" xmlns:xlink="http://www.w3.org/1999/xlink"><g id="C_-_165_x2C__Legal_x2C__legal_documents_x2C__Document_x2C__documents_x2C__page"><g><rect height="16.54" width="35.531" x="99.188" y="96.572"/><path d="M294.023,381.34c0.776,0.236,1.559,0.458,2.347,0.664c0.13,0.033,0.259,0.071,0.388,0.104    c0.859,0.219,1.727,0.417,2.6,0.599c0.219,0.044,0.438,0.084,0.656,0.127c0.677,0.133,1.357,0.254,2.042,0.364    c0.257,0.041,0.514,0.084,0.771,0.121c0.864,0.128,1.731,0.241,2.606,0.331c0.163,0.017,0.327,0.027,0.489,0.043    c0.754,0.071,1.512,0.129,2.273,0.173c0.253,0.015,0.506,0.028,0.761,0.039c0.911,0.041,1.825,0.069,2.746,0.069    c0.923,0,1.838-0.028,2.75-0.069c0.251-0.011,0.501-0.024,0.753-0.039c0.771-0.044,1.541-0.102,2.306-0.175    c0.149-0.015,0.302-0.024,0.453-0.039c0.886-0.092,1.767-0.206,2.641-0.335c0.234-0.035,0.468-0.074,0.702-0.112    c0.723-0.115,1.442-0.242,2.156-0.384c0.184-0.036,0.367-0.069,0.551-0.107c0.9-0.186,1.795-0.391,2.68-0.617    c0.074-0.019,0.15-0.04,0.225-0.06c0.859-0.223,1.711-0.465,2.555-0.724c0.083-0.025,0.166-0.05,0.25-0.075    c24.482-7.643,42.295-30.425,42.295-57.271c0-33.089-27.058-60.009-60.315-60.009c-33.257,0-60.313,26.92-60.313,60.009    c0,26.822,17.781,49.587,42.229,57.248C293.753,381.258,293.889,381.298,294.023,381.34z M276.295,323.967    c0-19.449,15.884-35.271,35.407-35.271c19.528,0,35.416,15.822,35.416,35.271s-15.888,35.272-35.416,35.272    C292.179,359.239,276.295,343.416,276.295,323.967z"/><path d="M325.561,391.964c-0.981,0.198-1.967,0.372-2.957,0.527c-0.197,0.031-0.396,0.062-0.594,0.091    c-0.983,0.146-1.971,0.271-2.961,0.376c-0.187,0.02-0.375,0.036-0.562,0.054c-1.026,0.1-2.055,0.181-3.086,0.234    c-0.122,0.007-0.246,0.01-0.37,0.016c-1.105,0.052-2.217,0.084-3.329,0.084c-1.11,0-2.218-0.032-3.323-0.084    c-0.126-0.006-0.253-0.009-0.379-0.016c-1.024-0.054-2.046-0.135-3.064-0.232c-0.197-0.02-0.396-0.037-0.594-0.058    c-0.977-0.103-1.948-0.227-2.916-0.371c-0.219-0.031-0.438-0.065-0.656-0.1c-0.966-0.152-1.929-0.323-2.886-0.515    c-0.179-0.036-0.358-0.075-0.536-0.113c-1.008-0.21-2.01-0.437-3.006-0.691c-0.041-0.011-0.082-0.022-0.123-0.033    c-4.278-1.102-8.447-2.606-12.449-4.501v17.18v57.216l27.342-37.223c0.896-1.222,2.286-1.94,3.852-1.91    c1.517,0.023,2.929,0.782,3.787,2.034l24.887,36.278v-56.396v-17.178c-4.99,2.363-10.24,4.116-15.643,5.238    C325.85,391.902,325.705,391.935,325.561,391.964z"/><polygon points="117.721,401.156 132.509,363.808 101.624,363.808   "/><path d="M337.747,323.967c0-14.281-11.684-25.9-26.045-25.9c-14.356,0-26.036,11.619-26.036,25.9s11.68,25.901,26.036,25.901    C326.063,349.868,337.747,338.248,337.747,323.967z"/><polygon points="398.239,57.565 398.239,95.901 436.736,95.901   "/><path d="M393.554,105.272c-2.588,0-4.686-2.097-4.686-4.686V50.973H180.01v348.153h92.388v-17.907    c-18.329-12.512-30.381-33.504-30.381-57.252c0-38.256,31.262-69.38,69.685-69.38c38.425,0,69.686,31.124,69.686,69.38    c0,23.748-12.052,44.74-30.38,57.252v17.907h92.389V105.272H393.554z M204.097,95.901h107.774c2.588,0,4.686,2.097,4.686,4.685    c0,2.588-2.098,4.686-4.686,4.686H204.097c-2.587,0-4.686-2.097-4.686-4.686C199.411,97.999,201.509,95.901,204.097,95.901z     M419.309,202.516H204.097c-2.587,0-4.686-2.098-4.686-4.686s2.098-4.686,4.686-4.686h215.212c2.588,0,4.686,2.098,4.686,4.686    S421.896,202.516,419.309,202.516z M419.309,170.104H204.097c-2.587,0-4.686-2.098-4.686-4.686c0-2.588,2.098-4.686,4.686-4.686    h215.212c2.588,0,4.686,2.097,4.686,4.686C423.994,168.006,421.896,170.104,419.309,170.104z M419.309,137.691H204.097    c-2.587,0-4.686-2.097-4.686-4.685c0-2.588,2.098-4.686,4.686-4.686h215.212c2.588,0,4.686,2.097,4.686,4.686    C423.994,135.594,421.896,137.691,419.309,137.691z"/><path d="M99.188,148.862H73.289c-2.587,0-4.686,2.097-4.686,4.686v84.915c0,2.588,2.099,4.686,4.686,4.686    c2.588,0,4.686-2.098,4.686-4.686v-80.229h21.213v196.204h35.531V122.482H99.188V148.862z"/><path d="M116.954,50.973c-9.797,0-17.767,7.922-17.767,17.66v18.568h35.531V68.633C134.718,58.895,126.75,50.973,116.954,50.973z" /></g></g><g id="Layer_1"/></svg>
