<svg width="50" height="50" xmlns="http://www.w3.org/2000/svg">

 <g>
  <title>background</title>
  <rect fill="none" id="canvas_background" height="402" width="582" y="-1" x="-1"/>
 </g>
 <g>
  <title>Layer 1</title>
  <path fill="#ffffff" id="svg_1" d="m9,13l-8,0l0,31c0,2.757 2.243,5 5,5l38,0c2.757,0 5,-2.243 5,-5l0,-43l-40,0l0,12zm-6,31l0,-29l6,0l0,29c0,1.654 -1.346,3 -3,3s-3,-1.346 -3,-3zm8,-41l36,0l0,41c0,1.654 -1.346,3 -3,3l-34.002,0c0.03,-0.039 0.051,-0.084 0.079,-0.124c0.057,-0.081 0.107,-0.166 0.159,-0.251c0.106,-0.17 0.202,-0.345 0.287,-0.528c0.045,-0.096 0.088,-0.193 0.126,-0.292c0.075,-0.194 0.135,-0.393 0.186,-0.598c0.023,-0.094 0.052,-0.184 0.07,-0.28c0.058,-0.301 0.095,-0.609 0.095,-0.927l0,-31l0,-10z"/>
  <rect fill="#ffffff" id="svg_2" y="8" x="15" width="28" height="2"/>
  <rect fill="#ffffff" id="svg_3" y="13" x="19" width="20" height="2"/>
  <rect fill="#ffffff" id="svg_4" y="21" x="31" width="12" height="2"/>
  <rect fill="#ffffff" id="svg_5" y="26" x="31" width="12" height="2"/>
  <path fill="#ffffff" id="svg_6" d="m27,21l-12,0l0,12l12,0l0,-12zm-2,10l-8,0l0,-8l8,0l0,8z"/>
  <rect fill="#ffffff" id="svg_7" y="31" x="31" width="12" height="2"/>
  <rect fill="#ffffff" id="svg_8" y="36" x="15" width="12" height="2"/>
  <rect fill="#ffffff" id="svg_9" y="36" x="31" width="12" height="2"/>
  <rect fill="#ffffff" id="svg_10" y="41" x="15" width="12" height="2"/>
  <rect fill="#ffffff" id="svg_11" y="41" x="31" width="12" height="2"/>
 </g>
</svg>