<?xml version="1.0" encoding="UTF-8" standalone="no"?><!DOCTYPE svg PUBLIC "-//W3C//DTD SVG 1.1//EN" "http://www.w3.org/Graphics/SVG/1.1/DTD/svg11.dtd"><svg width="100%" height="100%" viewBox="0 0 2084 2084" version="1.1" xmlns="http://www.w3.org/2000/svg" xmlns:xlink="http://www.w3.org/1999/xlink" xml:space="preserve" xmlns:serif="http://www.serif.com/" style="fill-rule:evenodd;clip-rule:evenodd;stroke-miterlimit:10;"><path d="M208.75,1322.08l0,-863.75c0,-34.583 28.333,-62.5 62.5,-62.5l1548.75,0c34.583,0 62.5,28.334 62.5,62.5l0,863.75" style="fill-opacity:0;fill-rule:nonzero;stroke:#fff;stroke-width:91.67px;"/><path d="M1940,1612.92l-1795.83,-0c-34.167,-0 -62.5,-28.334 -62.5,-62.5l-0,-26.667c-0,-34.583 28.333,-62.5 62.5,-62.5l1795.83,0c34.583,0 62.5,28.333 62.5,62.5l0,26.667c0,34.166 -27.917,62.5 -62.5,62.5Z" style="fill:#fff;fill-rule:nonzero;"/><path d="M1036.25,423.75c-10.833,0 -19.583,-8.75 -19.583,-19.583c-0,-10.834 8.75,-19.584 19.583,-19.584c10.833,0 19.583,8.75 19.583,19.584c-0.416,10.833 -9.166,19.583 -19.583,19.583Z" style="fill-rule:nonzero;"/><path d="M1996.25,1497.08l-1910,3.334l77.083,-181.25l1765,-0l67.917,177.916Z" style="fill:#fff;fill-rule:nonzero;"/><path d="M1174.17,1567.5l-256.667,0c-23.75,0 -42.917,-19.167 -42.917,-42.917l0,-17.083c0,-23.75 19.167,-42.917 42.917,-42.917l256.667,0c23.75,0 42.916,19.167 42.916,42.917l0,17.083c0,23.75 -19.166,42.917 -42.916,42.917Z" style="fill-rule:nonzero;"/></svg>