<?xml version="1.0" encoding="UTF-8" standalone="no"?><!DOCTYPE svg PUBLIC "-//W3C//DTD SVG 1.1//EN" "http://www.w3.org/Graphics/SVG/1.1/DTD/svg11.dtd"><svg width="100%" height="100%" viewBox="0 0 1379 1379" version="1.1" xmlns="http://www.w3.org/2000/svg" xmlns:xlink="http://www.w3.org/1999/xlink" xml:space="preserve" xmlns:serif="http://www.serif.com/" style="fill-rule:evenodd;clip-rule:evenodd;stroke-linejoin:round;stroke-miterlimit:2;"><g><path d="M583.691,847.231l263.671,-158.203l-263.671,-158.203l-0,316.406Z" style="fill:url(#_Linear1);fill-rule:nonzero;"/><path d="M978.056,0l-578.056,0c-220.912,0 -400,179.087 -400,400l0,578.056c0,220.916 179.087,400 400,400l578.056,0c220.913,0 400,-179.084 400,-400l0,-578.056c0,-220.913 -179.087,-400 -400,-400Zm132.713,723.044c-0,72.825 -8.438,145.625 -8.438,145.625c0,-0 -8.253,62.015 -33.512,89.278c-32.088,35.806 -68.028,36.019 -84.507,38.128c-118.046,9.044 -295.284,9.359 -295.284,9.359c0,0 -219.322,-2.134 -286.797,-9.043c-18.775,-3.744 -60.881,-2.663 -92.997,-38.469c-25.287,-27.263 -33.512,-89.278 -33.512,-89.278c-0,-0 -8.438,-72.772 -8.438,-145.625l0,-68.238c0,-72.8 8.438,-145.6 8.438,-145.6c-0,0 8.253,-62.04 33.512,-89.359c32.116,-35.806 68.029,-36.019 84.507,-38.047c118.018,-9.15 295.075,-9.15 295.075,-9.15l0.397,-0c-0,-0 177.056,-0 295.1,9.15c16.478,2.031 52.418,2.241 84.506,38.047c25.287,27.315 33.512,89.359 33.512,89.359c0,0 8.438,72.8 8.438,145.625l-0,68.238Z" style="fill:url(#_Linear2);fill-rule:nonzero;"/></g><defs><linearGradient id="_Linear1" x1="0" y1="0" x2="1" y2="0" gradientUnits="userSpaceOnUse" gradientTransform="matrix(224.322,224.322,-224.322,224.322,525.341,577.945)"><stop offset="0" style="stop-color:#dd272d;stop-opacity:1"/><stop offset="0.52" style="stop-color:#ca2429;stop-opacity:1"/><stop offset="1" style="stop-color:#b22025;stop-opacity:1"/></linearGradient><linearGradient id="_Linear2" x1="0" y1="0" x2="1" y2="0" gradientUnits="userSpaceOnUse" gradientTransform="matrix(1216.32,1216.32,-1216.32,1216.32,86.7131,86.7147)"><stop offset="0" style="stop-color:#dd272d;stop-opacity:1"/><stop offset="0.52" style="stop-color:#ca2429;stop-opacity:1"/><stop offset="1" style="stop-color:#b22025;stop-opacity:1"/></linearGradient></defs></svg>